<?xml version="1.0" standalone="no"?>
<!DOCTYPE svg PUBLIC "-//W3C//DTD SVG 20010904//EN"
 "http://www.w3.org/TR/2001/REC-SVG-20010904/DTD/svg10.dtd">
<svg version="1.0" xmlns="http://www.w3.org/2000/svg"
 width="1574.000000pt" height="1370.000000pt" viewBox="0 0 1574.000000 1370.000000"
 preserveAspectRatio="xMidYMid meet">

<g transform="translate(0.000000,1370.000000) scale(0.100000,-0.100000)"
fill="#000000" stroke="none">
<path d="M2205 8743 c-193 -458 -330 -963 -389 -1438 -52 -417 -52 -902 0
-1325 232 -1889 1456 -3522 3209 -4278 541 -234 1090 -370 1710 -423 77 -7
266 -12 420 -12 380 0 682 27 1023 94 2106 409 3765 2024 4231 4119 142 635
163 1348 60 2005 -61 391 -197 862 -360 1248 l-62 147 -429 0 c-236 0 -428 -3
-426 -7 2 -5 42 -87 90 -183 276 -562 426 -1125 467 -1755 13 -186 14 -415 4
-415 -5 0 -71 53 -148 117 -279 233 -683 569 -800 667 -66 55 -158 132 -205
171 -111 93 -553 462 -599 499 -78 64 -206 171 -211 176 -3 3 -41 35 -85 70
-44 35 -82 67 -85 70 -3 3 -30 25 -60 50 -30 24 -73 60 -96 80 -22 19 -57 49
-78 65 -20 17 -47 38 -59 49 -12 10 -42 35 -67 55 -25 20 -49 41 -55 47 -5 6
-44 38 -85 70 -78 62 -91 73 -137 114 -72 65 29 60 -1115 60 -998 0 -1039 -1
-1055 -19 -36 -37 -109 -120 -143 -162 -19 -24 -53 -64 -75 -89 -22 -25 -58
-68 -80 -95 -22 -27 -83 -99 -135 -161 -52 -61 -124 -147 -160 -189 -36 -43
-69 -83 -75 -89 -5 -6 -44 -52 -85 -101 -42 -50 -146 -173 -231 -275 -85 -102
-208 -248 -273 -325 -120 -142 -280 -334 -671 -800 -237 -283 -419 -499 -805
-960 -138 -165 -350 -417 -469 -560 -120 -143 -280 -334 -356 -425 -76 -91
-142 -166 -146 -168 -12 -5 -167 318 -232 483 -252 642 -360 1322 -316 1990
41 629 192 1194 467 1755 48 96 88 178 90 183 2 4 -190 7 -426 7 l-429 0 -58
-137z m5622 -290 c32 -26 60 -50 63 -53 3 -3 30 -25 60 -50 30 -25 60 -49 66
-55 7 -5 31 -26 55 -45 24 -19 73 -60 110 -90 98 -82 367 -301 665 -545 88
-71 161 -132 164 -135 3 -3 50 -42 105 -87 55 -44 208 -170 340 -278 132 -108
307 -251 389 -318 313 -257 399 -327 587 -481 107 -88 230 -189 274 -226 87
-72 476 -391 719 -588 121 -98 150 -127 148 -145 -1 -12 -21 -78 -43 -147
-278 -850 -816 -1619 -1529 -2181 -1384 -1093 -3287 -1294 -4875 -514 -363
179 -700 404 -1015 681 -118 103 -410 398 -410 414 0 6 199 250 443 543 243
292 532 640 642 772 110 132 377 454 594 715 682 821 770 926 1076 1295 360
434 743 896 900 1085 38 47 72 87 75 90 3 3 34 41 70 85 35 44 69 85 75 91 5
6 48 57 94 113 46 55 87 101 91 101 5 0 34 -21 67 -47z"/>
</g>
</svg>
